<?xml version="1.0" encoding="UTF-8"?>
<svg id="visual" width="4096" height="2160" version="1.1" viewBox="0 0 4096 2160" xmlns="http://www.w3.org/2000/svg">
 <g id="layer1">
  <g id="g154" transform="matrix(2.1333 0 0 2.1333 0 -70.87)">
   <rect id="rect2" width="1920" height="1080" fill="#241f31"/>
   <g id="g116" transform="translate(1920)">
    <path id="path102" d="m0 1080c-68.6-19-137.3-38-203.3-58s-129.3-41-191.6-68.6c-62.4-27.5-123.7-61.8-170.7-107s-79.6-101.4-141.5-139.3-152.9-57.5-179.2-114.9c-26.4-57.3 12-152.4-14.5-219.1s-117.8-105-158.4-162.4c-40.7-57.5-30.8-134.1-20.8-210.7h1080z" fill="#30223b"/>
    <path id="path104" d="m0 925.7c-58.8-16.3-117.7-32.6-174.2-49.7-56.6-17.2-110.9-35.1-164.3-58.8-53.4-23.6-106-52.9-146.3-91.7-40.3-38.7-68.3-86.9-121.3-119.4s-131.1-49.3-153.6-98.5c-22.6-49.1 10.3-130.6-12.4-187.8-22.7-57.1-101-90-135.8-139.2-34.9-49.2-26.4-114.9-17.8-180.6h925.7z" fill="#4e254a"/>
    <path id="path106" d="m0 771.4c-49-13.6-98.1-27.1-145.2-41.4s-92.4-29.3-136.9-49-88.3-44.1-121.9-76.4c-33.5-32.3-56.9-72.4-101.1-99.5s-109.2-41.1-128-82.1c-18.8-40.9 8.6-108.9-10.3-156.5s-84.2-75-113.2-116c-29.1-41-21.9-95.8-14.8-150.5h771.4z" fill="#70234e"/>
    <path id="path108" d="m0 617.1c-39.2-10.8-78.5-21.7-116.2-33.1s-73.9-23.4-109.5-39.2c-35.6-15.7-70.6-35.3-97.5-61.1-26.8-25.9-45.5-58-80.9-79.6-35.3-21.7-87.3-32.9-102.4-65.7-15-32.7 6.9-87.1-8.2-125.2-15.2-38.1-67.3-60-90.6-92.8-23.2-32.8-17.5-76.6-11.8-120.4h617.1z" fill="#921f48"/>
    <path id="path110" d="m0 462.9c-29.4-8.2-58.8-16.3-87.1-24.9s-55.4-17.6-82.2-29.4c-26.7-11.8-52.9-26.5-73.1-45.8-20.1-19.4-34.1-43.5-60.6-59.8-26.6-16.2-65.6-24.6-76.9-49.2-11.2-24.6 5.2-65.3-6.1-93.9-11.4-28.6-50.5-45-68-69.6-17.4-24.6-13.1-57.5-8.9-90.3h462.9z" fill="#af2438"/>
    <path id="path112" d="m0 308.6c-19.6-5.5-39.2-10.9-58.1-16.6-18.8-5.7-36.9-11.7-54.7-19.6s-35.4-17.6-48.8-30.6c-13.4-12.9-22.8-28.9-40.4-39.8-17.7-10.8-43.7-16.4-51.2-32.8-7.6-16.4 3.4-43.5-4.2-62.6-7.5-19-33.6-30-45.2-46.4-11.7-16.4-8.8-38.3-6-60.2h308.6z" fill="#c1381d"/>
    <path id="path114" d="m0 154.3c-9.8-2.7-19.6-5.4-29-8.3-9.5-2.9-18.5-5.9-27.4-9.8s-17.7-8.8-24.4-15.3c-6.7-6.4-11.4-14.5-20.2-19.9-8.9-5.4-21.9-8.2-25.6-16.4-3.8-8.2 1.7-21.8-2.1-31.3s-16.8-15-22.6-23.2-4.4-19.2-3-30.1h154.3z" fill="#c64600"/>
   </g>
   <g id="g132" transform="translate(0,1080)">
    <path id="path118" d="m0-1080c75.2-2.3 150.5-4.5 207.8 35.5 57.3 39.9 96.6 122.1 166.1 141.9 69.5 19.7 169.2-23 226.1 4.6s70.9 125.4 107.8 190.2 96.6 96.4 132 146.7c35.4 50.2 46.5 119 83.2 178.8 36.6 59.8 98.9 110.7 129.4 173 30.4 62.2 29 135.7 27.6 209.3h-1080z" fill="#30223b"/>
    <path id="path120" d="m0-925.7c64.5-1.9 129-3.9 178.1 30.4 49.1 34.2 82.8 104.7 142.4 121.6s145-19.6 193.8 4 60.8 107.5 92.4 163 82.8 82.7 113.1 125.7c30.4 43.1 39.9 102 71.3 153.3 31.5 51.3 84.8 94.9 110.9 148.3 26.1 53.3 24.9 116.4 23.7 179.4h-925.7z" fill="#4e254a"/>
    <path id="path122" d="m0-771.4c53.7-1.6 107.5-3.2 148.4 25.3 40.9 28.6 69 87.3 118.7 101.4 49.6 14.1 120.9-16.4 161.5 3.3s50.6 89.6 77 135.8c26.3 46.3 69 68.9 94.2 104.8 25.3 35.9 33.2 85 59.5 127.7 26.2 42.8 70.7 79.1 92.4 123.6 21.7 44.4 20.7 97 19.7 149.5h-771.4z" fill="#70234e"/>
    <path id="path124" d="m0-617.1c43-1.3 86-2.6 118.7 20.2 32.8 22.9 55.2 69.8 94.9 81.1 39.8 11.3 96.8-13.1 129.3 2.7 32.5 15.7 40.5 71.6 61.6 108.6 21 37 55.2 55.2 75.4 83.9s26.5 68 47.5 102.1c21 34.2 56.6 63.3 74 98.9 17.4 35.5 16.5 77.6 15.7 119.6h-617.1z" fill="#921f48"/>
    <path id="path126" d="m0-462.9c32.2-0.9 64.5-1.9 89 15.2 24.6 17.2 41.4 52.4 71.2 60.9 29.8 8.4 72.6-9.9 96.9 1.9 24.4 11.9 30.4 53.8 46.2 81.6 15.9 27.7 41.4 41.3 56.6 62.8s19.9 51 35.7 76.7c15.7 25.6 42.4 47.4 55.4 74.1 13.1 26.7 12.5 58.2 11.9 89.7h-462.9z" fill="#af2438"/>
    <path id="path128" d="m0-308.6c21.5-0.6 43-1.3 59.4 10.2 16.3 11.4 27.6 34.9 47.4 40.5 19.9 5.6 48.4-6.5 64.6 1.3 16.3 7.9 20.3 35.9 30.8 54.4 10.6 18.5 27.6 27.5 37.7 41.9 10.2 14.3 13.3 34 23.8 51.1s28.3 31.6 37 49.4 8.3 38.8 7.9 59.8h-308.6z" fill="#c1381d"/>
    <path id="path130" d="m0-154.3c10.7-0.3 21.5-0.6 29.7 5.1s13.8 17.4 23.7 20.3c9.9 2.8 24.2-3.3 32.3 0.6 8.1 4 10.1 17.9 15.4 27.2 5.3 9.2 13.8 13.8 18.9 20.9 5 7.2 6.6 17 11.9 25.6 5.2 8.5 14.1 15.8 18.4 24.7 4.4 8.9 4.2 19.4 4 29.9h-154.3z" fill="#c64600"/>
   </g>
  </g>
 </g>
 <g id="layer2" style="mix-blend-mode:overlay">
  <rect id="rect481" y="-72" width="4096" height="2304" style="-inkscape-stroke:none;fill:#99c1f1;stop-color:#000000;stroke-dashoffset:26.4;stroke-linejoin:round;stroke-width:10"/>
 </g>
</svg>
