<?xml version="1.0" encoding="UTF-8"?>
<svg width="4096" height="2560" xmlns="http://www.w3.org/2000/svg" xmlns:xlink="http://www.w3.org/1999/xlink">
 <defs>
  <linearGradient id="d" x1="1389.9" x2="2306.5" y1="2355.8" y2="1493.2" gradientTransform="rotate(-45 -1032.2 8744.9)" gradientUnits="userSpaceOnUse">
   <stop style="stop-color:#e01b24" offset="0"/>
   <stop style="stop-color:#c64600" offset="1"/>
  </linearGradient>
  <linearGradient id="e" x1="963.2" x2="1645.3" y1="2614.6" y2="1909.4" gradientTransform="rotate(-30 1238.2 474.02)" gradientUnits="userSpaceOnUse">
   <stop style="stop-color:#c64600" offset="0"/>
   <stop style="stop-color:#ff7800" offset="1"/>
  </linearGradient>
  <linearGradient id="f" x1="-10046" x2="-10046" y1="2439.9" y2="3778.1" gradientTransform="rotate(195 -3939.7 617.88)" gradientUnits="userSpaceOnUse">
   <stop style="stop-color:#a51d2d" offset="0"/>
   <stop style="stop-color:#241f31" offset="1"/>
  </linearGradient>
 </defs>
 <rect x="-80" y="-80" width="4320" height="2720" rx="1.245" ry="1.245" style="-inkscape-stroke:none;fill:url(#d);font-variation-settings:normal;stroke-linecap:round;stroke-width:.092"/>
 <path d="m1125 1157.3-98.312 366.9a80.076 80.076 150 0 1-98.073 56.622 80 80 60.055 0 1-56.475-98.033l93.136-347.59a80.076 80.076 60 0 0-56.623-98.073 80 80 149.94 0 0-97.925 56.662l-10.314 38.49a80.076 80.076 150 0 1-98.073 56.623 80 80 60.055 0 1-56.475-98.034l93.135-347.59a80.076 80.076 60 0 0-56.622-98.073 80 80 149.94 0 0-97.926 56.662l-187.79 700.84a80.076 80.076 150 0 1-98.073 56.622 80 80 60.055 0 1-56.475-98.033l53.204-198.56a80.076 80.076 60 0 0-56.622-98.074 80 80 149.94 0 0-97.926 56.662l-42.01 156.79a80.076 80.076 150 0 1-98.074 56.622 80 80 149.94 0 0-97.925 56.662l-444.49 1658.9a80.076 80.076 60 0 0 56.622 98.073 80 80 60.055 0 1 56.475 98.033 80 80 59.945 0 0 56.662 97.926 80 80 60.055 0 1 56.475 98.033 80 80 59.945 0 0 56.662 97.926 80 80 149.94 0 0 97.926-56.662 80 80 150.06 0 1 98.033-56.475l154.55 41.411a126.47 126.47 149.94 0 0 252.47-15.25 80 80 150.06 0 1 98.034-56.476l154.55 41.411a126.47 126.47 60.055 0 1 211.02 139.44l-82.782 308.95a80.076 80.076 60 0 0 56.622 98.072l309.1 82.822 154.55 41.412a97008044 97008044 15 0 0 309.1 82.822 1.5302e8 1.5302e8 15 0 1 154.55 41.41 126.47 126.47 149.94 0 0 252.47-15.25l41.371-154.4a80.076 80.076 150 0 1 98.073-56.622l154.55 41.41 309.1 82.822 154.55 41.412a1.0451e8 1.0451e8 15 0 0 309.1 82.822 8.11e7 8.11e7 15 0 1 154.55 41.41 80 80 149.94 0 0 97.926-56.66l41.372-154.4a80.076 80.076 150 0 1 98.072-56.622 80 80 149.94 0 0 97.926-56.662l662.54-2472.6a80.076 80.076 60 0 0-56.622-98.073 80 80 149.94 0 0-97.926 56.662l-239.92 895.41a80.076 80.076 150 0 1-98.073 56.622 80 80 60.055 0 1-56.475-98.033l32.869-122.67a80.076 80.076 60 0 0-56.623-98.072 80 80 149.94 0 0-97.925 56.661l-32.885 122.73a80.076 80.076 150 0 1-98.073 56.622 80 80 60.054 0 1-56.476-98.034l18.261-68.15a80.076 80.076 60 0 0-56.622-98.073 80 80 149.94 0 0-97.926 56.662l-83.417 311.32a80.076 80.076 150 0 1-98.073 56.623 83.402 83.402 58.86 0 1-59.712-98.83l12.717-56.826a83.481 83.481 58.807 0 0-59.86-98.869 78.655 78.655 149.46 0 0-96.611 57.002l-91.135 364.75a78.73 78.73 149.51 0 1-96.758 56.962 80 80 60.055 0 1-56.476-98.034l158.49-591.48a80.076 80.076 60 0 0-56.623-98.073 80 80 149.94 0 0-97.926 56.662l-129.16 482.02a80.076 80.076 150 0 1-98.073 56.622 80 80 60.055 0 1-56.475-98.034l64.765-241.71a80.076 80.076 60 0 0-56.623-98.072 80 80 149.94 0 0-97.925 56.662l-6.977 26.038a80.076 80.076 150 0 1-98.073 56.622 80 80 60.055 0 1-56.475-98.033l42.419-158.31a80.076 80.076 60 0 0-56.622-98.073 80 80 149.94 0 0-97.926 56.662l-91.73 342.34a80.076 80.076 150 0 1-98.073 56.622 80 80 60.055 0 1-56.476-98.033l49.324-184.08a80.076 80.076 60 0 0-56.623-98.073 80 80 149.94 0 0-97.925 56.662l-12.195 45.51a80.076 80.076 150 0 1-98.073 56.622 80 80 60.055 0 1-56.475-98.033l112.97-421.59a80.076 80.076 60 0 0-56.623-98.073 80 80 149.94 0 0-97.925 56.662l-124.04 462.91a80.076 80.076 150 0 1-98.073 56.622 80 80 60.055 0 1-56.475-98.033l204.44-762.97a80.076 80.076 60 0 0-56.622-98.073 80 80 149.95 0 0-97.926 56.662z" style="-inkscape-stroke:none;fill:url(#e);stroke-linecap:round;stroke-width:.092"/>
 <path d="m3112.3 1159 98.312-366.9a80.076 80.076 150 0 1 98.073-56.623 80 80 60.055 0 1 56.475 98.034l-93.134 347.59a80.076 80.076 60 0 0 56.622 98.073 80 80 149.95 0 0 97.926-56.662l10.313-38.49a80.076 80.076 150 0 1 98.073-56.622 80 80 60.055 0 1 56.475 98.033l-93.135 347.59a80.076 80.076 60 0 0 56.622 98.073 80 80 149.94 0 0 97.926-56.662l187.79-700.84a80.076 80.076 150 0 1 98.073-56.623 80 80 60.055 0 1 56.475 98.034l-53.204 198.56a80.076 80.076 60 0 0 56.622 98.073 80 80 149.94 0 0 97.926-56.662l42.011-156.79a80.076 80.076 150 0 1 98.073-56.622 80 80 149.94 0 0 97.926-56.662l444.49-1658.9a80.076 80.076 60 0 0-56.623-98.073 80 80 60.055 0 1-56.475-98.033 80 80 59.945 0 0-56.662-97.926 80 80 60.055 0 1-56.475-98.033 80 80 59.945 0 0-56.662-97.926 80 80 149.94 0 0-97.926 56.662 80 80 150.06 0 1-98.033 56.475l-154.55-41.41a126.47 126.47 149.94 0 0-252.47 15.25 80 80 150.06 0 1-98.033 56.475 97008043 97008043 15 0 0-154.55-41.41 88343514 88343514 15 0 1-154.55-41.412 80 80 60.055 0 1-56.475-98.033l82.783-308.95a80.076 80.076 60 0 0-56.623-98.072l-309.1-82.822-309.1-82.822-154.55-41.412a1.4693e8 1.4693e8 15 0 1-309.1-82.822 80 80 149.94 0 0-97.925 56.662l-41.372 154.4a80.076 80.076 150 0 1-98.073 56.622l-154.55-41.41-309.1-82.822-154.55-41.412a1.3252e8 1.3252e8 15 0 0-309.1-82.822 8.995e7 8.995e7 15 0 1-154.55-41.41 80 80 149.94 0 0-97.925 56.66l-41.372 154.4a80.076 80.076 150 0 1-98.073 56.622 80 80 149.94 0 0-97.926 56.662l-662.54 2472.6a80.076 80.076 60 0 0 56.622 98.073 80 80 149.94 0 0 97.926-56.662l239.92-895.41a80.076 80.076 150 0 1 98.073-56.623 80 80 60.055 0 1 56.475 98.034l-32.869 122.67a80.076 80.076 60 0 0 56.623 98.073 80 80 149.94 0 0 97.926-56.662l32.885-122.73a80.076 80.076 150 0 1 98.073-56.622 80 80 60.054 0 1 56.475 98.034l-18.261 68.15a80.076 80.076 60 0 0 56.622 98.073 80 80 149.94 0 0 97.926-56.662l83.417-311.32a80.076 80.076 150 0 1 98.073-56.622 83.402 83.402 58.86 0 1 59.713 98.829l-12.718 56.826a83.481 83.481 58.807 0 0 59.86 98.869 78.655 78.655 149.46 0 0 96.611-57.002l91.135-364.75a78.73 78.73 149.51 0 1 96.759-56.963 80 80 60.055 0 1 56.475 98.034l-158.48 591.48a80.076 80.076 60 0 0 56.622 98.073 80 80 149.94 0 0 97.926-56.662l129.16-482.01a80.076 80.076 150 0 1 98.073-56.623 80 80 60.055 0 1 56.476 98.034l-64.765 241.71a80.076 80.076 60 0 0 56.622 98.073 80 80 149.94 0 0 97.926-56.662l6.977-26.039a80.076 80.076 150 0 1 98.073-56.622 80 80 60.055 0 1 56.475 98.033l-42.42 158.31a80.076 80.076 60 0 0 56.623 98.073 80 80 149.94 0 0 97.926-56.661l91.73-342.34a80.076 80.076 150 0 1 98.073-56.622 80 80 60.055 0 1 56.475 98.033l-49.323 184.08a80.076 80.076 60 0 0 56.622 98.073 80 80 149.94 0 0 97.926-56.662l12.194-45.51a80.076 80.076 150 0 1 98.073-56.622 80 80 60.055 0 1 56.475 98.034l-112.96 421.59a80.076 80.076 60 0 0 56.622 98.073 80 80 149.94 0 0 97.926-56.662l124.04-462.91a80.076 80.076 150 0 1 98.073-56.622 80 80 60.054 0 1 56.475 98.033l-204.44 762.97a80.076 80.076 60 0 0 56.622 98.073 80 80 149.95 0 0 97.926-56.662z" style="-inkscape-stroke:none;fill:url(#f);font-variation-settings:normal;stroke-linecap:round;stroke-width:.043512"/>
</svg>
